<?xml version="1.0" standalone="no"?>
<!DOCTYPE svg PUBLIC "-//W3C//DTD SVG 20010904//EN"
 "http://www.w3.org/TR/2001/REC-SVG-20010904/DTD/svg10.dtd">
<svg version="1.0" xmlns="http://www.w3.org/2000/svg"
 width="319.000000pt" height="319.000000pt" viewBox="0 0 319.000000 319.000000"
 preserveAspectRatio="xMidYMid meet">
<metadata>
Created by potrace 1.11, written by Peter Selinger 2001-2013
</metadata>
<g transform="translate(0.000000,319.000000) scale(0.100000,-0.100000)"
fill="#000000" stroke="none">
<path d="M476 2673 c-3 -3 -6 -397 -6 -874 l0 -867 -31 -26 c-17 -14 -28 -26
-25 -26 3 0 -16 -20 -42 -44 -26 -25 -44 -47 -41 -51 8 -7 509 -8 517 0 3 3
-31 43 -76 88 -46 46 -79 86 -75 90 5 6 7 113 2 144 -1 4 0 13 1 18 2 12 2 64
0 180 -1 50 -1 95 0 100 1 6 1 28 1 50 -2 94 -2 181 -1 190 1 6 1 28 1 50 -2
94 -2 181 -1 190 1 6 1 28 1 50 -2 94 -2 181 -1 190 3 16 2 79 0 90 -1 6 -2
30 -1 55 1 40 3 43 15 28 7 -10 18 -18 25 -18 6 0 11 -4 11 -10 0 -9 77 -90
87 -90 4 0 204 -193 432 -417 57 -57 106 -103 109 -103 2 0 47 -42 98 -92 52
-51 101 -93 109 -93 8 0 91 75 183 168 93 92 171 167 175 167 3 0 34 30 69 66
35 36 76 72 91 80 15 8 25 19 22 24 -3 4 -1 10 5 12 15 5 270 260 270 270 0 5
4 7 9 4 5 -3 17 7 27 22 l19 27 5 -65 c3 -36 3 -68 0 -72 -3 -4 -3 -41 0 -83
3 -42 3 -81 0 -85 -3 -5 -3 -41 0 -80 3 -40 3 -73 0 -75 -3 -2 -3 -38 0 -80 3
-42 3 -81 0 -85 -3 -5 -3 -41 0 -80 3 -40 3 -73 0 -75 -3 -2 -3 -38 0 -80 3
-42 3 -81 0 -85 -3 -5 -3 -41 0 -80 3 -40 2 -74 -2 -77 -5 -2 -6 -8 -4 -12 3
-4 5 -41 5 -82 1 -41 1 -98 2 -127 0 -42 -5 -59 -24 -82 -14 -16 -28 -26 -31
-23 -3 4 -6 1 -6 -5 0 -7 -16 -30 -36 -52 -20 -22 -34 -43 -31 -46 7 -7 488
-6 495 1 3 3 -26 38 -66 78 l-72 72 0 869 c0 478 -3 866 -6 863 -4 -3 -15 -2
-25 4 -13 7 -26 6 -40 -1 -14 -8 -24 -8 -32 -1 -8 6 -18 6 -27 1 -8 -5 -19 -6
-25 -2 -16 10 -34 11 -40 2 -3 -4 -13 -6 -23 -3 -13 3 -29 -8 -50 -32 -18 -19
-32 -34 -32 -33 0 2 -90 -84 -200 -192 -110 -107 -200 -194 -200 -192 0 1 -31
-28 -70 -66 -38 -38 -70 -68 -70 -67 0 1 -30 -28 -67 -64 -38 -36 -98 -94
-135 -129 l-67 -63 -143 138 c-79 76 -167 160 -196 186 -28 26 -52 49 -52 51
0 2 -25 28 -55 58 -30 30 -55 53 -55 50 0 -2 -38 33 -86 79 -47 46 -89 86 -95
87 -5 2 -9 9 -10 15 0 7 -36 41 -79 77 -43 36 -79 70 -79 76 -1 14 -29 26 -42
18 -5 -3 -15 -2 -21 3 -17 10 -49 10 -70 0 -10 -4 -18 -4 -18 2 0 5 -14 6 -34
1 -18 -4 -40 -4 -48 1 -8 5 -18 6 -22 2z"/>
<path d="M2168 1625 c-32 -30 -58 -53 -58 -50 0 3 -13 -9 -28 -25 -16 -16 -46
-43 -67 -60 -21 -16 -34 -30 -29 -30 5 -1 -1 -6 -13 -13 -12 -7 -66 -54 -121
-104 -55 -51 -105 -93 -111 -93 -6 0 -11 -4 -11 -9 0 -5 -34 -40 -76 -77 l-76
-68 -18 22 c-10 12 -23 22 -29 22 -6 0 -11 4 -11 8 0 7 -73 75 -444 413 -101
92 -117 103 -133 93 -9 -5 -16 -14 -15 -19 0 -6 -4 -18 -9 -27 -5 -9 -5 -27
-1 -39 5 -12 6 -40 2 -61 -4 -21 -3 -41 1 -44 5 -3 5 -12 0 -22 -14 -25 8 -61
84 -132 38 -36 105 -99 148 -140 43 -41 105 -97 137 -125 32 -27 59 -55 59
-62 1 -6 10 -14 20 -18 10 -3 40 -28 65 -55 26 -28 51 -50 56 -50 6 0 10 -7
10 -16 0 -8 4 -13 8 -10 5 3 22 -8 37 -24 16 -17 34 -30 40 -30 6 0 42 30 81
68 159 150 244 230 244 227 0 -2 24 20 53 49 140 136 215 206 221 206 3 0 19
14 35 32 22 25 27 37 21 54 -5 11 -4 27 1 35 14 23 11 229 -3 229 -7 0 -39
-25 -70 -55z"/>
</g>
</svg>
